<?xml version="1.0" encoding="utf-8"?>
<!-- Generator: Adobe Illustrator 24.3.0, SVG Export Plug-In . SVG Version: 6.00 Build 0)  -->
<svg version="1.1" id="Layer_1" xmlns="http://www.w3.org/2000/svg" xmlns:xlink="http://www.w3.org/1999/xlink" x="0px" y="0px"
	 viewBox="0 0 850.4 240.4" style="enable-background:new 0 0 850.4 240.4;" xml:space="preserve">
<style type="text/css">
	.st0{fill:#FFFFFF;}
	.st1{fill:#CA3624;}
	.st2{fill:#282F61;}
</style>
<path class="st0" d="M724.2,75.1c-1.6-2-3.9-3-7.1-3h-6.2c-0.6,0-1,0.4-1,0.9c0,0,0,0,0,0.1v29.6c0,0.6,0.4,1,1,1c0,0,0,0,0.1,0h6.2
	c3.2,0,5.6-1,7.1-3c1.8-2.1,2-5.2,2-12.9S726,77.1,724.2,75.1 M732.7,105.1c-3.5,4.9-8.1,7.1-14.8,7.1h-16.6c-0.6,0-1.1-0.5-1.1-1.1
	V64.6c0-0.6,0.5-1,1.1-1h16.6c6.7,0,11.3,2.3,14.8,7.1c3,4.2,3.1,9.2,3.1,17.2s-0.1,13.1-3.1,17.2"/>
<path class="st0" d="M838.9,75.1c-1.6-2-3.9-3-7.2-3h-6.2c-0.6,0-1,0.4-1,0.9c0,0,0,0,0,0.1v29.6c0,0.6,0.4,1,1,1c0,0,0,0,0.1,0h6.2
	c3.2,0,5.6-1,7.2-3c1.8-2.1,2-5.2,2-12.9S840.6,77.1,838.9,75.1 M847.3,105.1c-3.5,4.9-8.1,7.1-14.8,7.1h-16.6c-0.6,0-1-0.5-1-1.1
	V64.6c0-0.6,0.4-1,1-1h16.6c6.7,0,11.3,2.3,14.8,7.1c3,4.2,3.1,9.2,3.1,17.2s-0.1,13.1-3.1,17.2"/>
<path class="st0" d="M633.2,112.3c-0.5,0-0.8-0.4-0.8-0.8V84.7c0-0.5-0.2-0.5-0.4-0.1l-8.6,17c-0.3,0.4-0.7,0.7-1.2,0.7h-4.8
	c-0.5,0-1-0.3-1.2-0.7l-8.7-17c-0.2-0.4-0.4-0.4-0.4,0.1v26.7c0,0.5-0.4,0.8-0.8,0.8l0,0h-7.9c-0.5,0-0.8-0.4-0.8-0.8c0,0,0,0,0,0
	v-47c0-0.5,0.4-0.8,0.8-0.8l0,0h7.7c0.5,0,1,0.3,1.2,0.8l12,24.8c0.2,0.4,0.5,0.4,0.7,0l12-24.8c0.2-0.4,0.7-0.7,1.2-0.8h7.7
	c0.5,0,0.8,0.4,0.8,0.8v47c0,0.5-0.4,0.8-0.8,0.8H633.2z"/>
<path class="st0" d="M670.9,78.7c-0.1-0.4-0.4-0.4-0.5,0l-5.6,16.1c-0.1,0.3,0,0.6,0.3,0.7c0.1,0,0.2,0.1,0.3,0h10.5
	c0.3,0,0.6-0.2,0.6-0.5c0-0.1,0-0.2,0-0.3L670.9,78.7z M682.9,112.2c-0.5,0-0.9-0.3-1.1-0.8l-2.3-7c-0.2-0.5-0.6-0.8-1.1-0.8h-15.7
	c-0.5,0-0.9,0.3-1.1,0.8l-2.4,7c-0.2,0.5-0.6,0.8-1.1,0.8h-8.3c-0.3,0-0.6-0.2-0.6-0.5c0-0.1,0-0.2,0.1-0.3l17.2-47.1
	c0.2-0.5,0.6-0.8,1.1-0.8h5.8c0.5,0,0.9,0.3,1.1,0.8l17.3,47.2c0.1,0.3,0,0.6-0.2,0.7c-0.1,0-0.2,0.1-0.3,0.1L682.9,112.2z"/>
<path class="st0" d="M764.8,72.1h-8c-0.6,0-1,0.4-1,0.9c0,0,0,0,0,0.1v10.8c0,0.6,0.4,1,1,1c0,0,0,0,0.1,0h8c4.2,0,6.9-2.7,6.9-6.4
	S769,72,764.8,72.1 M771.9,111.6l-9-18.2c-0.2-0.4-0.5-0.6-1-0.6h-5.2c-0.6,0-1,0.4-1,0.9c0,0,0,0,0,0.1v17.3c0,0.6-0.4,1-0.9,1
	c0,0,0,0-0.1,0h-7.4c-0.6,0-1.1-0.5-1.1-1.1V64.6c0-0.6,0.5-1,1.1-1h18.1c10,0,15.9,6.8,15.9,14.9c0.2,5.4-3,10.3-7.9,12.4
	c-0.5,0.2-0.8,0.8-0.5,1.3c0,0,0,0.1,0.1,0.1l9.6,18.4c0.3,0.5,0.1,1.1-0.5,1.4c-0.2,0.1-0.3,0.1-0.5,0.1h-8.7
	c-0.4,0-0.8-0.2-0.9-0.6"/>
<path class="st0" d="M793.9,112.3c-0.5,0-0.8-0.4-0.8-0.8v0v-47c0-0.5,0.4-0.8,0.8-0.8h7.9c0.5,0,0.8,0.4,0.8,0.8v47
	c0,0.5-0.4,0.8-0.8,0.8l0,0H793.9z"/>
<path class="st0" d="M249.1,78.7c-0.1-0.4-0.4-0.4-0.5,0l-5.6,16.1c-0.1,0.3,0,0.6,0.3,0.7c0.1,0,0.2,0.1,0.3,0h10.5
	c0.3,0,0.6-0.2,0.6-0.5c0-0.1,0-0.2,0-0.3L249.1,78.7z M261.1,112.2c-0.5,0-0.9-0.3-1.1-0.8l-2.4-7c-0.2-0.5-0.6-0.8-1.1-0.8h-15.7
	c-0.5,0-0.9,0.3-1.1,0.8l-2.4,7c-0.2,0.5-0.6,0.8-1.1,0.8h-8.3c-0.3,0-0.6-0.2-0.6-0.5c0-0.1,0-0.2,0-0.3l17.2-47.1
	c0.2-0.5,0.6-0.8,1.1-0.8h5.8c0.5,0,0.9,0.3,1.1,0.8l17.3,47.2c0.1,0.3,0,0.6-0.3,0.7c-0.1,0-0.2,0.1-0.3,0L261.1,112.2z"/>
<path class="st0" d="M290.9,72.1c-0.5,0-0.8,0.4-0.8,0.8v38.5c0,0.5-0.4,0.8-0.8,0.8h-7.9c-0.5,0-0.8-0.4-0.8-0.8V72.9
	c0-0.5-0.4-0.8-0.8-0.8h-11.1c-0.5,0-0.8-0.4-0.8-0.8v-6.8c0-0.5,0.4-0.8,0.8-0.8H302c0.5,0,0.8,0.4,0.8,0.8v6.8
	c0,0.5-0.4,0.8-0.8,0.8H290.9z"/>
<path class="st0" d="M311.3,112.3c-0.5,0-0.8-0.4-0.8-0.8v-47c0-0.5,0.4-0.8,0.8-0.8h7.9c0.5,0,0.8,0.4,0.8,0.8V103
	c0,0.5,0.4,0.8,0.8,0.8h18c0.5,0,0.8,0.4,0.8,0.8v6.8c0,0.5-0.4,0.8-0.8,0.8L311.3,112.3z"/>
<path class="st0" d="M408.1,72.1c-0.5,0-0.8,0.4-0.8,0.8v38.5c0,0.5-0.4,0.8-0.8,0.8h-7.9c-0.5,0-0.8-0.4-0.8-0.8V72.9
	c0-0.5-0.4-0.8-0.8-0.8h-11.1c-0.5,0-0.8-0.4-0.8-0.8v-6.8c0-0.5,0.4-0.8,0.8-0.8h33.4c0.5,0,0.8,0.4,0.8,0.8v6.8
	c0,0.5-0.4,0.8-0.8,0.8H408.1z"/>
<path class="st0" d="M428.4,63.6h7.9c0.5,0,0.8,0.4,0.8,0.8v47c0,0.5-0.4,0.8-0.8,0.8h-7.9c-0.5,0-0.8-0.4-0.8-0.8v-47
	C427.6,63.9,428,63.6,428.4,63.6z"/>
<path class="st0" d="M464.6,112.7c-4.9,0.2-9.6-1.7-13.1-5.1c-4.9-4.9-4.9-10.3-4.9-19.6s0.1-14.8,4.9-19.6
	c3.5-3.4,8.2-5.3,13.1-5.1c8.3,0,14.8,4.3,17.3,12.7c0.3,1.1-0.3,2.3-1.4,2.7c-0.2,0.1-0.4,0.1-0.6,0.1h-5.5c-0.9,0-1.7-0.6-2-1.4
	c-1-3.4-4.2-5.6-7.8-5.5c-2.3-0.1-4.5,0.8-6.1,2.5c-1.8,2-2.4,4.4-2.4,13.7s0.6,11.7,2.4,13.8c1.6,1.7,3.8,2.6,6.1,2.5
	c3.6,0.2,6.8-2.1,7.8-5.5c0.3-0.8,1.1-1.4,2-1.4h6.8c0.6,0,1.1,0.5,1,1.1c0,0.1,0,0.1,0,0.2C480.1,107.9,473.2,112.6,464.6,112.7"/>
<path class="st0" d="M513.3,74.2c-1.6-1.7-3.8-2.7-6.1-2.6c-2.3-0.1-4.6,0.9-6.2,2.6c-1.8,2-2.3,4.4-2.3,13.7s0.5,11.6,2.3,13.6
	c1.6,1.7,3.8,2.7,6.2,2.7c2.3,0,4.6-0.9,6.1-2.7c1.8-2.1,2.4-4.3,2.4-13.6S515.1,76.3,513.3,74.2 M520.2,107.5
	c-7.4,6.8-18.8,6.8-26.2,0c-4.9-4.9-4.9-10.3-4.9-19.6s0.1-14.8,4.9-19.6c7.4-6.8,18.8-6.8,26.2,0c4.9,4.9,5,10.3,5,19.6
	S525.1,102.7,520.2,107.5"/>
<path class="st0" d="M347.2,112.3c-0.5,0-0.8-0.4-0.8-0.8v-47c0-0.5,0.4-0.8,0.8-0.8h30.5c0.5,0,0.8,0.4,0.8,0.8v6.8
	c0,0.5-0.4,0.8-0.8,0.8h-21c-0.5,0-0.8,0.4-0.8,0.8v9.8c0,0.5,0.4,0.8,0.8,0.8h17.6c0.5,0,0.8,0.4,0.8,0.8v6.8
	c0,0.5-0.4,0.8-0.8,0.8h-17.6c-0.5,0-0.8,0.4-0.8,0.8V103c0,0.5,0.4,0.8,0.8,0.8h21c0.5,0,0.8,0.4,0.8,0.8v6.8
	c0,0.5-0.4,0.8-0.8,0.8L347.2,112.3z"/>
<path class="st0" d="M554.8,81.7c-0.8-1-2.1-1.5-3.4-1.4h-3c-0.3,0-0.5,0.2-0.5,0.5v14c0,0.3,0.2,0.5,0.5,0.5c0,0,0,0,0,0h3
	c1.3,0.1,2.5-0.4,3.4-1.4c0.8-1,0.9-2.5,0.9-6.1S555.6,82.7,554.8,81.7 M558.8,95.9c-1.6,2.3-4.2,3.6-7,3.4h-7.9
	c-0.3,0-0.5-0.2-0.5-0.5v-22c0-0.3,0.2-0.5,0.5-0.5c0,0,0,0,0,0h7.9c2.8-0.2,5.4,1.1,7,3.4c1.4,2,1.5,4.3,1.5,8.2
	S560.3,93.9,558.8,95.9"/>
<path class="st0" d="M565.2,99.3c-0.5,0-0.8-0.4-0.8-0.8V77.1c0-0.5,0.4-0.8,0.8-0.8l0,0h13.6c0.5,0,0.8,0.4,0.8,0.8v2.3
	c0,0.5-0.4,0.8-0.8,0.8h-9c-0.5,0-0.8,0.4-0.8,0.8v3.7c0,0.5,0.4,0.8,0.8,0.8h7.5c0.5,0,0.8,0.4,0.8,0.8v2.3c0,0.5-0.4,0.8-0.8,0.8
	h-7.5c-0.5,0-0.8,0.4-0.8,0.8v3.9c0,0.5,0.4,0.8,0.8,0.8h9c0.5,0,0.8,0.4,0.8,0.8v2.3c0,0.5-0.4,0.8-0.8,0.8L565.2,99.3z"/>
<path class="st0" d="M582.2,66.9c0,0.5-0.4,0.8-0.8,0.8h-39.7c-0.5,0-0.8-0.4-0.8-0.8v-2.6c0-0.5,0.4-0.8,0.8-0.8h39.7
	c0.5,0,0.8,0.4,0.8,0.8V66.9z"/>
<path class="st0" d="M541.6,108.2h39.7c0.5,0,0.8,0.4,0.8,0.8v2.6c0,0.5-0.4,0.8-0.8,0.8h-39.7c-0.5,0-0.8-0.4-0.8-0.8v-2.6
	C540.7,108.6,541.1,108.2,541.6,108.2z"/>
<path class="st0" d="M378.6,56.1v-4.6c0-0.8-0.6-1.2-1.6-1l-21,4.7c-0.4,0.2-0.6,0.6-0.6,1c0,0.6,0.5,1.1,1.1,1.1h21
	C378.1,57.3,378.6,56.8,378.6,56.1"/>
<path class="st0" d="M454,206.6h5.9c0.2,0,0.3,0.1,0.3,0.3v23.8c0,0.2-0.1,0.3-0.3,0.3H454c-0.2,0-0.3-0.1-0.3-0.3v-23.8
	C453.6,206.8,453.8,206.6,454,206.6z"/>
<path class="st0" d="M450.1,206.7h-5.3v-5.1c0-0.2-0.2-0.3-0.3-0.3h-5.9c-0.2,0-0.3,0.1-0.3,0.3v20.8c0,5.5,3.1,8.7,8.6,8.7h3.2
	c0.2,0,0.3-0.1,0.3-0.3c0,0,0,0,0,0v-5.3c0-0.2-0.1-0.3-0.3-0.3c0,0,0,0,0,0h-2.9c-1.7-0.1-2.5-0.9-2.5-2.7v-9.1h5.3
	c0.2,0,0.3-0.1,0.3-0.3V207C450.4,206.8,450.3,206.7,450.1,206.7C450.1,206.7,450.1,206.7,450.1,206.7z"/>
<path class="st0" d="M453.3,199.4c0,4.8,7.2,4.8,7.2,0S453.3,194.6,453.3,199.4z"/>
<path class="st0" d="M476,212.4c1.5,0,2.9,0.5,4,1.5c0.1,0.1,0.3,0.1,0.5,0l3.8-4c0.1-0.1,0.1-0.3,0-0.5c-2.2-2.2-5.2-3.4-8.3-3.3
	c-7.6,0-12.6,4.9-12.6,12.5s4.9,12.5,12.6,12.5c3.1,0.1,6.1-1.1,8.3-3.3c0.1-0.1,0.1-0.3,0-0.5l-3.8-4c-0.1-0.1-0.3-0.1-0.5,0
	c-1.1,0.9-2.5,1.5-4,1.5c-3.4-0.1-6.1-3-6-6.5C470.1,215.1,472.7,212.5,476,212.4L476,212.4z"/>
<path class="st0" d="M496.8,215.5c-3.8-0.2-3.8-1.6-3.8-2c0-1.6,2.5-1.8,3.6-1.8c1.8-0.1,3.6,0.5,5,1.6c0.1,0.1,0.3,0.1,0.5,0
	l3.3-3.9c0.1-0.1,0.1-0.3,0-0.5c-2.4-2-5-2.9-8.8-2.9c-2.3,0-4.5,0.5-6.5,1.6c-2.2,1.2-3.5,3.4-3.5,5.9c0,4.3,3.5,7,9.8,7.5
	c3.6,0.2,4,1.2,4,2.1c0,1.3-1.7,2-3.4,2h-0.1c-2.6,0-5.2-1-7.2-2.7c-0.1-0.1-0.3-0.2-0.5,0c0,0,0,0,0,0l-3,4.1
	c-0.1,0.1-0.1,0.3,0,0.4c3.5,3.5,7.3,4,10.6,4c4.6,0,8.1-1.8,9.5-4.8c0.4-0.9,0.6-2,0.6-3C506.9,217,501.5,215.8,496.8,215.5z"/>
<path class="st0" d="M396.6,206.3c-2.6,0-5,1-6.9,2.8V207c0-0.2-0.1-0.3-0.3-0.3h-5.6c-0.2,0-0.3,0.1-0.3,0.3v23.7
	c0,0.2,0.1,0.3,0.3,0.3h5.8c0.2,0,0.3-0.1,0.3-0.3c0,0,0,0,0,0v-12.9c0-2.9,2.3-5.3,5.1-5.4h0.1c3.6,0,5,2.9,5,5.5v12.8
	c0,0.2,0.1,0.3,0.3,0.3h5.9c0.2,0,0.3-0.1,0.3-0.3v-12.8C406.6,211,402.6,206.3,396.6,206.3z"/>
<path class="st0" d="M379.5,206.6h-5.8c-0.2,0-0.3,0.1-0.3,0.3v1c-2-1.6-4.4-1.8-6.7-1.8h-0.1c-7.4,0-12.1,4.8-12.1,12.3
	c0,3.9,1.2,7.1,3.4,9.3c2.3,2.2,5.4,3.3,8.6,3.2h0.4c2.1,0,4.5-0.1,6.6-2v1.8c0,0.2,0.1,0.3,0.3,0.3c0,0,0,0,0,0h5.8
	c0.2,0,0.3-0.1,0.3-0.3c0,0,0,0,0,0v-23.7C379.9,206.8,379.7,206.6,379.5,206.6z M372.1,222.7c-1.3,1.3-3.1,2.1-4.9,2.1
	c-3.7,0-6.2-2.6-6.2-6.4s2.5-6.3,6.2-6.3c3.3-0.2,6.1,2.2,6.3,5.5c0,0.2,0,0.5,0,0.7C373.6,219.9,373.1,221.5,372.1,222.7z"/>
<path class="st0" d="M434.5,206.6h-5.8c-0.2,0-0.3,0.1-0.3,0.3v1c-2-1.6-4.4-1.8-6.7-1.8h-0.1c-7.4,0-12.1,4.8-12.1,12.3
	c0,3.9,1.2,7.1,3.4,9.3c2.3,2.2,5.4,3.3,8.6,3.2h0.4c2.1,0,4.5-0.1,6.6-2v1.8c0,0.2,0.1,0.3,0.3,0.3h5.8c0.2,0,0.3-0.1,0.3-0.3
	v-23.7C434.8,206.8,434.7,206.6,434.5,206.6z M427.1,222.7c-1.3,1.3-3.1,2.1-4.9,2.1c-3.7,0-6.2-2.6-6.2-6.4c0-3.5,2.8-6.3,6.2-6.3
	c3.5,0,6.3,2.8,6.3,6.2C428.6,219.9,428.1,221.5,427.1,222.7L427.1,222.7z"/>
<path class="st0" d="M351.6,209.1H341c-0.2,0-0.4-0.2-0.4-0.4c0,0,0,0,0,0v-7.2c0-0.2,0.2-0.4,0.4-0.4l0,0h14.6
	c0.2,0,0.4-0.2,0.4-0.4v0V195c0-0.2-0.2-0.4-0.4-0.4c0,0,0,0,0,0h-21.2c-0.2,0-0.4,0.2-0.4,0.4l0,0v35.6c0,0.2,0.2,0.4,0.4,0.4l0,0
	h5.7c0.2,0,0.4-0.2,0.4-0.4c0,0,0,0,0,0v-14.5c0-0.2,0.2-0.4,0.4-0.4l0,0h10.7c0.2,0,0.4-0.2,0.4-0.4c0,0,0,0,0,0v-5.7
	C352,209.3,351.8,209.1,351.6,209.1z"/>
<path class="st0" d="M274.7,186.6c-3.6-0.4-7.3-1-10.8-1.8c-0.3-0.1-0.7,0.1-0.8,0.5c0,0.2,0,0.4,0.1,0.5l9.2,14.2
	c0.1,0.1,0.2,0.2,0.3,0.2c14.3,3.1,30.6-9.9,44.6-2.8c0.2,0.1,0.5,0,0.6-0.2l6.1-9.5c0.1-0.2,0.1-0.5-0.1-0.6
	C308.2,174.7,296.5,187.8,274.7,186.6z"/>
<path class="st0" d="M313.9,203c-10.7-3.7-20.7,3.4-35.9,3.8c-0.4,0-0.6,0.3-0.6,0.6c0,0.1,0,0.2,0.1,0.4l16.5,25.3
	c0.1,0.2,0.3,0.3,0.5,0.2c0.2-0.1,0.3-0.3,0.2-0.4l-3.5-16.1c0-0.1,0.1-0.3,0.2-0.3c1.3-0.5,10.6-3.6,15-1.6c0.1,0.1,0.3,0,0.3-0.1
	l7.4-11.4C314.2,203.2,314.1,203.1,313.9,203C314,203,314,203,313.9,203z"/>
<polygon class="st0" points="528.3,216.8 545.5,216.8 545.5,212.1 528.3,212.1 528.3,203.7 546.2,203.7 546.2,198.8 523.3,198.8 
	523.3,230.1 546.4,230.1 546.4,225.2 528.3,225.2 "/>
<polygon class="st0" points="570.8,208.2 570.8,208.1 565.2,208.1 560.4,215.9 555.5,208.1 549.9,208.1 549.9,208.2 557.3,218.9 
	549.4,230 549.4,230.1 555,230.1 560.4,222.1 565.8,230.1 571.3,230.1 571.3,230 563.4,218.9 "/>
<path class="st0" d="M595.4,210.9c-1-1-2.2-1.8-3.5-2.4c-1.4-0.6-3-0.9-4.5-0.9c-1.5,0-3,0.3-4.4,1c-1.4,0.7-2.6,1.7-3.4,3l-0.3-3.6
	H575v32.3h4.6V227c0.4,0.7,0.9,1.3,1.5,1.7c0.6,0.5,1.3,0.9,2,1.2c0.7,0.3,1.4,0.5,2.2,0.6c0.7,0.1,1.4,0.2,2.1,0.2
	c1.6,0,3.2-0.3,4.6-0.9c1.3-0.5,2.5-1.3,3.5-2.4c1-1.1,1.7-2.3,2.2-3.7c0.5-1.5,0.8-3.1,0.8-4.7c0-1.6-0.3-3.1-0.8-4.6
	C597.2,213.2,596.4,211.9,595.4,210.9z M593.4,222c-0.3,0.8-0.8,1.6-1.5,2.2c-0.6,0.6-1.4,1.1-2.2,1.5c-0.9,0.4-1.8,0.6-2.8,0.5
	c-1,0-1.9-0.2-2.8-0.6c-0.8-0.4-1.6-0.9-2.2-1.5c-0.6-0.7-1.1-1.4-1.4-2.3c-0.7-1.8-0.7-3.7,0-5.5c0.3-0.8,0.8-1.6,1.4-2.2
	c0.6-0.6,1.3-1.2,2.2-1.5c0.9-0.4,1.9-0.6,2.9-0.5c1.9-0.1,3.8,0.6,5.1,2c1.3,1.4,2,3.2,1.9,5.1C593.9,220.1,593.7,221.1,593.4,222
	L593.4,222z"/>
<path class="st0" d="M622.2,210.9c-1-1.1-2.3-2-3.7-2.5c-1.6-0.6-3.2-0.8-4.8-0.8c-1.6,0-3.2,0.3-4.7,0.9c-1.4,0.5-2.6,1.3-3.6,2.4
	c-1,1-1.8,2.3-2.4,3.6c-0.6,1.5-0.9,3-0.8,4.6c0,1.6,0.3,3.3,0.8,4.8c1.1,2.8,3.3,5,6.1,6c1.6,0.6,3.2,0.9,4.9,0.8
	c0.9,0,1.7-0.1,2.6-0.2c0.9-0.1,1.7-0.4,2.6-0.7c0.8-0.3,1.6-0.7,2.3-1.2c0.7-0.5,1.4-1,2-1.7l-3-2.9c-0.8,0.8-1.8,1.5-2.9,1.8
	c-1.1,0.4-2.3,0.6-3.5,0.6c-1.8,0.1-3.6-0.4-5-1.5c-1.3-1-2.1-2.4-2.2-4h17.9c0.2-2,0.1-3.9-0.4-5.9
	C624,213.5,623.2,212.1,622.2,210.9z M607,217c0.2-1.6,1.1-3,2.4-4c1.3-0.9,2.9-1.4,4.4-1.3c1.6-0.1,3.2,0.4,4.6,1.3
	c1.2,1,2,2.4,2,4H607z"/>
<path class="st0" d="M640.5,207.6c-1.2,0-2.4,0.2-3.5,0.6c-1.3,0.5-2.4,1.5-3,2.8l-0.3-2.9h-4.3v22h4.6v-11.9c0-0.9,0.1-1.8,0.5-2.7
	c0.3-0.7,0.7-1.4,1.3-1.9c0.5-0.5,1.2-0.9,1.9-1.1c0.7-0.3,1.5-0.4,2.3-0.4c0.7,0,1.5,0.1,2.2,0.3c0.6,0.2,1.2,0.6,1.7,1l2.1-4
	c-0.7-0.6-1.5-1.1-2.4-1.4C642.6,207.8,641.6,207.6,640.5,207.6z"/>
<rect x="649.1" y="208" class="st0" width="4.6" height="22.1"/>
<path class="st0" d="M653.4,199.5c-1.1-0.9-2.8-0.9-3.9,0c-0.6,0.5-1,1.3-0.9,2.1c-0.1,0.8,0.3,1.6,0.9,2.1c1.1,1,2.8,1,3.9,0
	c0.6-0.5,1-1.3,0.9-2.1C654.4,200.8,654,200,653.4,199.5z"/>
<path class="st0" d="M678.7,210.9c-1-1.1-2.3-2-3.7-2.5c-1.6-0.6-3.2-0.8-4.8-0.8c-1.6,0-3.2,0.3-4.7,0.9c-1.4,0.5-2.6,1.3-3.7,2.4
	c-1,1-1.8,2.3-2.4,3.6c-0.6,1.5-0.9,3-0.8,4.6c0,1.6,0.3,3.3,0.8,4.8c1.1,2.8,3.3,5,6.1,6c1.6,0.6,3.2,0.9,4.9,0.8
	c0.9,0,1.7-0.1,2.6-0.2c0.9-0.1,1.7-0.4,2.6-0.7c0.8-0.3,1.6-0.7,2.3-1.2c0.7-0.5,1.4-1,2-1.7l-3-2.9c-0.8,0.8-1.8,1.4-2.9,1.8
	c-1.1,0.4-2.3,0.6-3.5,0.6c-1.8,0.1-3.6-0.4-5-1.5c-1.2-1-2-2.4-2.2-4h17.9c0.2-2,0.1-3.9-0.4-5.9
	C680.5,213.5,679.8,212.1,678.7,210.9z M663.5,217c0.2-1.6,1.1-3,2.4-4c1.3-0.9,2.9-1.4,4.4-1.3c1.6-0.1,3.2,0.4,4.6,1.3
	c1.2,1,2,2.4,2,4H663.5z"/>
<path class="st0" d="M704.6,210.4c-0.8-0.9-1.9-1.6-3-2c-1.2-0.5-2.5-0.7-3.7-0.7c-2.9,0-5.6,1.4-7.4,3.6l-0.3-3.2H686v22.1h4.6
	v-11.6c0-0.9,0.1-1.7,0.5-2.6c0.3-0.8,0.7-1.5,1.2-2.1c0.5-0.6,1.2-1.1,1.9-1.4c0.8-0.4,1.7-0.6,2.5-0.5c1.7-0.1,3.3,0.6,4.4,1.8
	c1.1,1.3,1.6,3,1.5,4.6v11.8h4.7v-11.8c0-1.6-0.2-3.1-0.7-4.6C706.2,212.5,705.5,211.3,704.6,210.4z"/>
<path class="st0" d="M726.3,225.8c-0.9,0.3-1.8,0.5-2.8,0.5c-0.9,0-1.8-0.1-2.7-0.4c-0.8-0.3-1.6-0.8-2.2-1.4
	c-0.7-0.6-1.2-1.4-1.5-2.2c-0.7-1.9-0.7-4.1,0-6c0.3-0.8,0.9-1.6,1.5-2.3c0.6-0.6,1.4-1.1,2.2-1.5c1.7-0.7,3.7-0.7,5.4,0
	c0.9,0.3,1.7,0.8,2.4,1.4l2.9-3c-1.1-1.1-2.3-1.9-3.7-2.5c-1.3-0.5-2.8-0.8-4.2-0.8c-1.5,0-3.1,0.2-4.5,0.7
	c-1.4,0.5-2.6,1.2-3.7,2.2c-1.1,1-1.9,2.2-2.5,3.6c-1.2,3.2-1.2,6.8,0,10.1c0.6,1.4,1.4,2.6,2.5,3.6c1.1,1,2.3,1.7,3.7,2.2
	c1.4,0.5,3,0.7,4.5,0.7c1.5,0,3-0.2,4.5-0.8c1.5-0.6,2.8-1.5,3.9-2.7l-3.1-3.1C728.1,225,727.2,225.5,726.3,225.8z"/>
<path class="st0" d="M756.4,215.1c-0.4-1.5-1.1-3-2.2-4.1c-1-1.1-2.3-2-3.7-2.5c-1.6-0.6-3.2-0.8-4.8-0.8c-1.6,0-3.2,0.3-4.7,0.9
	c-1.4,0.5-2.6,1.3-3.7,2.4c-1,1.1-1.8,2.3-2.3,3.7c-0.6,1.5-0.9,3-0.8,4.6c0,1.6,0.3,3.3,0.8,4.8c0.5,1.4,1.3,2.6,2.4,3.7
	c1.1,1,2.3,1.8,3.7,2.3c1.6,0.6,3.2,0.9,4.9,0.8c0.9,0,1.7-0.1,2.6-0.2c0.9-0.1,1.7-0.4,2.6-0.7c0.8-0.3,1.6-0.7,2.3-1.2
	c0.7-0.5,1.4-1,2-1.7l-3-2.9c-0.8,0.8-1.8,1.4-2.9,1.8c-1.1,0.4-2.3,0.6-3.5,0.6c-1.8,0.1-3.6-0.4-5-1.5c-1.3-1-2-2.4-2.2-4h17.9
	C757.1,219,756.9,217,756.4,215.1z M739,217.1c0.2-1.6,1.1-3,2.4-4c1.3-0.9,2.9-1.4,4.4-1.3c1.6-0.1,3.2,0.4,4.6,1.3
	c1.2,1,2,2.4,2,4H739z"/>
<path class="st0" d="M241.3,199.6l-14,31.3h5.3l2.9-6.6h16.9l3,6.6h5.3l-14-31.3H241.3z M237.4,219.8l6.6-14.9l6.6,14.9H237.4z"/>
<path class="st0" d="M227.2,126.2h22.6v5.3h-8.1v26.9h-6.4v-26.9h-8.1L227.2,126.2z"/>
<path class="st0" d="M252.5,131.9v-6.9h6.5v6.9H252.5z M252.7,158.4v-23.7h6.1v23.7H252.7z"/>
<path class="st0" d="M282.4,148.9H269v0.7c0,2.8,1.3,4.1,5.7,4.1c2.7,0,5.4-0.4,8-1v5.1c-3,0.7-6.1,1.1-9.2,1.1
	c-8.4,0-10.7-3.3-10.7-9.4V143c0-5,2.3-8.8,8.2-8.8h3.1c5.9,0,8.2,3.6,8.2,8.4L282.4,148.9z M269,144.2h7.3v-1.5
	c0-2.2-1-3.5-3.3-3.5h-0.7c-2.3,0-3.3,1.3-3.3,3.5V144.2z"/>
<path class="st0" d="M300.4,134.2c3.6,0,6.4,1.9,6.4,7v17.1h-6.1v-14.8c0-2.7-0.9-3.8-2.7-3.8c-1.9,0.1-3.7,0.6-5.4,1.4v17.2h-6.1
	v-23.7h6v1.6C295,135,297.7,134.3,300.4,134.2z"/>
<path class="st0" d="M325.9,158.4l-0.4-1.7c-2.2,1.3-4.7,2-7.2,2.1c-4.1,0-7.6-2.7-7.6-8.1v-8.5c0-5.3,3.2-8,7.6-8
	c2.4,0.1,4.7,0.8,6.8,1.9v-12.3h6.2v34.5H325.9z M325.1,152v-11c-1.5-0.7-3.2-1.2-4.9-1.3c-2.2,0-3.4,1.2-3.4,4.3v4.9
	c0,3.1,1.1,4.4,3.5,4.4C322,153.3,323.6,152.8,325.1,152z"/>
<path class="st0" d="M354.5,151.1c0,2.4,0.2,4.9,0.8,7.3h-6.2c-0.1-0.5-0.3-1-0.4-1.4c-2.3,1.1-4.8,1.7-7.3,1.8c-4.1,0-7-2.2-7-7.3
	c0-4.5,2.6-6.6,7.8-6.6h6.1v-1.2c0-3.3-1.5-4.2-5.1-4.2c-2.2,0.1-4.4,0.3-6.5,0.8v-5.1c2.5-0.5,5.1-0.8,7.7-0.8c5.9,0,10,1.5,10,8
	L354.5,151.1z M348.3,152.7V149H344c-2.4,0-3.5,0.7-3.5,2.3c-0.2,1.3,0.8,2.5,2.1,2.7c0.2,0,0.4,0,0.6,0
	C345,153.8,346.7,153.4,348.3,152.7z"/>
<path class="st0" d="M367.1,136.9c0-7,3.8-11.2,11.7-11.2h2.8c7.9,0,11.6,4.1,11.6,11.3v10.6c0,7.2-3.7,11.3-11.6,11.3h-2.8
	c-8,0-11.7-4.1-11.7-11.3V136.9z M373.4,147.6c0,3.4,2,6.1,6.2,6.1h1.1c4.3,0,6.1-2.7,6.1-6.1V137c0-3.4-1.8-6.1-6.1-6.1h-1.1
	c-4.2,0-6.2,2.6-6.2,6.1V147.6z"/>
<path class="st0" d="M405.8,132.4v2.3h5.9v5.1h-5.9v18.6h-6.2v-18.6h-3.7v-5.1h3.7v-3c0-6.1,3.8-8.2,8.5-8.2c1.4,0,2.8,0.2,4.2,0.4
	v4.9c-0.9-0.2-1.9-0.3-2.9-0.3C406.9,128.4,405.8,129.5,405.8,132.4z"/>
<path class="st0" d="M414.3,131.9v-6.9h6.6v6.9H414.3z M414.6,158.4v-23.7h6.1v23.7H414.6z"/>
<path class="st0" d="M440.8,152.9v5.4c-2.1,0.4-4.2,0.6-6.3,0.5c-6.6,0-9.8-2.7-9.8-8.8v-7c0-5.7,2.8-8.8,9.9-8.8
	c1.9-0.1,3.9,0.1,5.8,0.5v5.4c-1.7-0.3-3.4-0.5-5.1-0.5c-3.1,0-4.4,1-4.4,4v5.8c0,3,1.2,4.1,4.4,4.1
	C437.1,153.4,439,153.3,440.8,152.9z"/>
<path class="st0" d="M444,131.9v-6.9h6.6v6.9H444z M444.3,158.4v-23.7h6.1v23.7H444.3z"/>
<path class="st0" d="M473.6,151.1c0,2.4,0.2,4.9,0.8,7.3h-6.2c-0.1-0.5-0.3-1-0.4-1.4c-2.3,1.1-4.8,1.7-7.3,1.8c-4.1,0-7-2.2-7-7.3
	c0-4.5,2.6-6.6,7.8-6.6h6.1v-1.2c0-3.3-1.5-4.2-5.1-4.2c-2.2,0.1-4.4,0.3-6.5,0.8v-5.1c2.5-0.5,5.1-0.8,7.7-0.8c5.9,0,10,1.5,10,8
	L473.6,151.1z M467.5,152.7V149h-4.2c-2.4,0-3.5,0.7-3.5,2.3c-0.1,1.3,0.8,2.5,2.1,2.7c0.2,0,0.4,0,0.6,0
	C464.2,153.8,465.9,153.4,467.5,152.7z"/>
<path class="st0" d="M484.2,151.9c0,1.4,0.7,1.9,1.8,1.9c0.6,0,1.2-0.2,1.7-0.4v4.7c-1.2,0.4-2.5,0.6-3.8,0.6
	c-3.6,0-5.9-1.1-5.9-6.2v-28.8h6.2V151.9z"/>
<path class="st0" d="M173.2,22.9c0-9-6.1-11.8-14.9-14C111.3-2.9,62-2.9,14.9,8.9C6.1,11.2,0,13.9,0,22.9v126.2
	c0.1,10.5,5,20.3,13.4,26.6l68,51.3l5.2,3.9l5.2-3.9l68-51.3c8.4-6.3,13.3-16.2,13.4-26.7L173.2,22.9z"/>
<path class="st1" d="M27.2,144.3l-8.9,6.8L9,158.2c1.6,4.6,4.5,8.6,8.3,11.5l0,0l9.9,7.5L27.2,144.3z"/>
<polygon class="st1" points="51,126.2 51,126.2 51,195.1 74.7,213 74.7,108.1 "/>
<polygon class="st1" points="122.2,71.9 122.2,71.9 98.4,90 98.4,213.1 98.4,213.1 122.2,195.2 "/>
<path class="st1" d="M165.9,135.9V38.6l-5.4,4.1l-14.6,11.1v123.4l10-7.6l0,0c1.7-1.3,3.2-2.8,4.6-4.5c3.5-4.4,5.4-9.8,5.4-15.4
	L165.9,135.9z"/>
<path class="st2" d="M160.5,165.2c-1.3,1.7-2.9,3.2-4.6,4.5l0,0l0,0L86.6,222l-69.3-52.3l0,0c-3.9-2.9-6.7-7-8.3-11.5l9.4-7.1
	l8.9-6.8L51,126.2l23.7-18.1L98.5,90l23.7-18.1l23.7-18.1l19.9-15.2v111.2C165.9,155.4,164,160.8,160.5,165.2 M7.2,143l2.1-6.3
	l-5.4-3.9h6.7l2.1-6.3l2.1,6.3h6.7l-5.4,3.9l2,6.3l-5.4-3.9L7.2,143z M21.4,75.9L16,79.8l2,6.3l-5.4-3.9l-5.4,3.9l2.1-6.3l-5.4-3.9
	h6.7l2.1-6.3l2.1,6.3L21.4,75.9z M3.9,22.1h6.7l2.1-6.3l2.1,6.3h6.7L16,26l2,6.3l-5.4-3.9l-5.4,3.9L9.3,26L3.9,22.1z M71.5,96.8
	l-5.4,3.9l2.1,6.3l0,0l-5.4-3.9l-5.4,3.9l2.1-6.3L54,96.8h6.7l2.1-6.3l2.1,6.3L71.5,96.8z M24.5,30.9L24.5,30.9
	c2.5-0.6,5.2-1.2,8.3-1.8c2.4-0.5,5-1,7.7-1.4c0.1,0.6,0.2,1.3,0.4,1.9c0,0,0,0,0,0.1v0.1c2,6,10.1,9.1,17.5,7
	c1.4,2.8,4.7,5.3,9.4,5.9c3.7,0.4,7.5-0.1,11-1.7v30.6L50.3,93.2c0.1-0.7,0.1-1.5,0.2-2.2v-0.9c3.1-1.9,5.9-5.7,7.2-10.4
	c0.6-2,0.9-4,0.8-6.1c-0.6,0.2-1.2,0.4-1.8,0.5c-0.9,0.2-1.9,0.2-2.8,0.2c2-0.1,3.9-0.8,5.5-2c0.4-0.3,0.8-0.6,1.1-1
	c2.4-2.5,4.2-5.5,5.1-8.8l4.7-16.3c-2.4-0.2-4.8,0.9-6.1,3l-2.3,3.6l-2.2,3.5c-0.6,0.9-1.4,1.6-2.4,2.1l-3.7-2.9l-0.4-0.3L51.7,49
	l2.1-3.8c0.6-1.1,0.8-2.4,0.6-3.6c-0.1-0.8-0.4-1.5-0.9-2.1c-0.4-0.5-1.1-0.6-1.6-0.3l-5.4,3.4c-0.1-0.1-0.3-0.3-0.5-0.4
	c-0.3-0.2-0.7-0.3-1.1-0.2c-0.7,0.2-1.3,0.5-1.9,0.9l-1.4,1l-2,1.4l-1.6-0.1h-1.1c-1.1,0-1.5,1.9-0.5,3.3c0.9,1.4,1.5,2.9,1.9,4.5
	c0,0,0,0.1,0,0.1c0,0.1,0.1,0.3,0.1,0.4s0,0.2,0.1,0.3c0.4,1.9,0.5,3.8,0.5,5.8c0,4.8-2.6,15.1-6,21.9c-0.2,0.3-0.3,0.6-0.5,0.9
	l-2.5,4.2c-0.4,0.7-0.3,1.6,0.2,2.2c0.4,0.5,1,0.8,1.6,0.8c1.5,2.2,2.4,4.8,2.7,7.4c0.3,2.7,0.2,5.4-0.3,8.1l-4.8,3.6l-5.1,3.8
	L24.5,30.9z M76,12.8h6.7l2-6.3l2.1,6.3h6.7l-5.4,3.9l2.1,6.3l-5.4-3.9l-5.4,3.9l2.1-6.3L76,12.8z M114.8,73.5L114.8,73.5l-5.4-3.9
	l-5.4,3.9l2-6.3l-5.4-3.9h6.7l2.1-6.3l2.1,6.3h6.7l-5.4,3.9L114.8,73.5z M105.8,40.9c1.6-1.1,2.9-2.6,3.8-4.3
	c7.8,2.3,16.4-2.5,14.3-10.3l1.9,0.3c1.9,0.3,3.6,0.5,5.4,0.8c1.7,0.3,3.4,0.6,5,0.9L90.6,62.7V39.1
	C97.8,43.4,102.6,42.9,105.8,40.9 M153.2,22.1l2.1-6.3l2.1,6.3h6.7l-5.4,3.9l2.1,6.3l-5.4-3.9l-5.4,3.9L152,26l-5.4-3.9H153.2z
	 M173.2,22.9c0-9-6.1-11.8-14.9-14C111.3-2.9,62-2.9,14.9,8.9C6.1,11.2,0,13.9,0,22.9v126.2c0.1,10.5,5,20.3,13.4,26.6l68,51.3
	l5.2,3.9l5.2-3.9l68-51.3c8.4-6.3,13.3-16.2,13.4-26.7L173.2,22.9z"/>
</svg>
